<svg width="500" viewBox="0 0 2048 2789" xmlns="http://www.w3.org/2000/svg">
  <path d="M 770 1327 Q 1202 1327 1202 1663 Q 1202 1804 1115 1901 Q 1028 1998 870 2027 L 870 2037 Q 985 2069 1046.5 2147.5 Q 1108 2226 1108 2336 Q 1108 2548 956 2668.5 Q 804 2789 549 2789 L 86 2789 L 395 1327 L 770 1327 z M 434 1953 L 682 1953 Q 838 1953 931 1880 Q 1024 1807 1024 1681 Q 1024 1577 957.5 1525.5 Q 891 1474 748 1474 L 537 1474 L 434 1953 z M 287 2644 L 553 2644 Q 734 2644 831 2563.5 Q 928 2483 928 2336 Q 928 2220 853.5 2158.5 Q 779 2097 639 2097 L 403 2097 L 287 2644 z" fill="blue" />
</svg>
