<?xml version="1.0" encoding="utf-8" ?>
<svg xmlns="http://www.w3.org/2000/svg" xmlns:xlink="http://www.w3.org/1999/xlink" width="500" height="500">
	<path fill="green" d="M338.379 -642.48Q528.223 -642.48 528.223 -494.824Q528.223 -432.861 489.99 -390.234Q451.758 -347.607 382.324 -334.863L382.324 -330.469Q432.861 -316.406 459.888 -281.909Q486.914 -247.412 486.914 -199.072Q486.914 -105.908 420.117 -52.9541Q353.32 0 241.26 0L37.793 0L173.584 -642.48L338.379 -642.48ZM190.723 -367.383L299.707 -367.383Q368.262 -367.383 409.131 -399.463Q450 -431.543 450 -486.914Q450 -532.617 420.776 -555.249Q391.553 -577.881 328.711 -577.881L235.986 -577.881L190.723 -367.383ZM126.123 -63.7207L243.018 -63.7207Q322.559 -63.7207 365.186 -99.0967Q407.812 -134.473 407.812 -199.072Q407.812 -250.049 375.073 -277.075Q342.334 -304.102 280.811 -304.102L177.1 -304.102L126.123 -63.7207Z"/>
</svg>
